<svg xmlns="http://www.w3.org/2000/svg" version="1.1" xmlns:xlink="http://www.w3.org/1999/xlink" xmlns:svgjs="http://svgjs.dev/svgjs" width="1500" height="1500" viewBox="0 0 1500 1500"><rect width="1500" height="1500" fill="#ffffff"></rect><g transform="matrix(0.6666666666666666,0,0,0.6666666666666666,250.0840716680318,395.62051282051283)"><svg viewBox="0 0 348 247" data-background-color="#ffffff" preserveAspectRatio="xMidYMid meet" height="1064" width="1500" xmlns="http://www.w3.org/2000/svg" xmlns:xlink="http://www.w3.org/1999/xlink"><g id="tight-bounds" transform="matrix(1,0,0,1,-0.029256940475050897,-0.09999999999999432)"><svg viewBox="0 0 348.0585138809501 247.2" height="247.2" width="348.0585138809501"><g><svg viewBox="0 0 395.5199999999999 280.9083533392379" height="247.2" width="348.0585138809501"><g transform="matrix(1,0,0,1,0,205.47039654947898)"><svg viewBox="0 0 395.5199999999999 75.43795678975897" height="75.43795678975897" width="395.5199999999999"><g id="textblocktransform"><svg viewBox="0 0 395.5199999999999 75.43795678975897" height="75.43795678975897" width="395.5199999999999" id="textblock"><g><svg viewBox="0 0 395.5199999999999 45.5372905894519" height="45.5372905894519" width="395.5199999999999"><g transform="matrix(1,0,0,1,0,0)"><svg width="395.5199999999999" viewBox="4.45 -32.75 290.08 33.4" height="45.5372905894519" data-palette-color="#336a86"><g class="wordmark-text-0" data-fill-palette-color="primary" id="text-0"><path d="M8.5-27.1L8.5-14.9 14.25-14.9Q17.95-14.9 20.05-16.5 22.15-18.1 22.15-21.25L22.15-21.25Q22.15-24.35 19.95-25.95 17.75-27.55 13.65-27.55L13.65-27.55Q12.3-27.55 10.93-27.43 9.55-27.3 8.5-27.1L8.5-27.1ZM14.25-11.5L14.25-11.5 4.45-11.5 4.45-28.2Q4.45-29 4.88-29.43 5.3-29.85 6.1-30.1L6.1-30.1Q7.55-30.55 9.68-30.75 11.8-30.95 13.8-30.95L13.8-30.95Q20.05-30.95 23.15-28.4 26.25-25.85 26.25-21.25L26.25-21.25Q26.25-18.3 24.9-16.1 23.55-13.9 20.9-12.7 18.25-11.5 14.25-11.5ZM22.55-1.3L14.35-12.8 17.35-14.3Q18.75-12.55 20.25-10.65 21.75-8.75 23.15-6.95 24.55-5.15 25.65-3.73 26.75-2.3 27.35-1.5L27.35-1.5Q27.15-0.65 26.48-0.15 25.8 0.35 25.1 0.35L25.1 0.35Q24.25 0.35 23.7-0.08 23.15-0.5 22.55-1.3L22.55-1.3ZM4.45-1.6L4.45-12.6 8.55-12.6 8.55-0.1Q8.25 0 7.75 0.13 7.25 0.25 6.65 0.25L6.65 0.25Q5.55 0.25 5-0.2 4.45-0.65 4.45-1.6L4.45-1.6ZM51.45-11.35L34.65-9 34.45-12.15 49.55-14.2Q49.35-16.95 47.65-18.73 45.95-20.5 42.95-20.5L42.95-20.5Q39.85-20.5 37.82-18.28 35.8-16.05 35.8-11.9L35.8-11.9 35.8-10.8Q36.15-6.8 38.42-4.73 40.7-2.65 44.65-2.65L44.65-2.65Q46.75-2.65 48.45-3.35 50.15-4.05 51.15-4.85L51.15-4.85Q51.7-4.5 52.02-4.03 52.35-3.55 52.35-2.95L52.35-2.95Q52.35-2 51.27-1.18 50.2-0.35 48.42 0.15 46.65 0.65 44.45 0.65L44.45 0.65Q40.6 0.65 37.77-0.75 34.95-2.15 33.42-4.93 31.9-7.7 31.9-11.7L31.9-11.7Q31.9-14.55 32.72-16.78 33.55-19 35.02-20.55 36.5-22.1 38.55-22.93 40.6-23.75 43-23.75L43-23.75Q46.05-23.75 48.37-22.45 50.7-21.15 52.02-18.82 53.35-16.5 53.35-13.5L53.35-13.5Q53.35-12.4 52.85-11.93 52.35-11.45 51.45-11.35L51.45-11.35ZM69.85-20.4L69.85-20.4Q66.45-20.4 64.2-18.1 61.95-15.8 61.95-11.5L61.95-11.5Q61.95-7.25 64.12-4.95 66.3-2.65 69.85-2.65L69.85-2.65Q71.95-2.65 73.35-3.23 74.75-3.8 75.85-4.55L75.85-4.55Q76.4-4.25 76.75-3.8 77.1-3.35 77.1-2.7L77.1-2.7Q77.1-1.3 75.02-0.33 72.95 0.65 69.85 0.65L69.85 0.65Q66.4 0.65 63.67-0.68 60.95-2 59.4-4.7 57.85-7.4 57.85-11.5L57.85-11.5Q57.85-15.55 59.45-18.28 61.05-21 63.77-22.38 66.5-23.75 69.75-23.75L69.75-23.75Q72.85-23.75 74.87-22.7 76.9-21.65 76.9-20.3L76.9-20.3Q76.9-19.7 76.55-19.25 76.2-18.8 75.65-18.55L75.65-18.55Q74.55-19.3 73.22-19.85 71.9-20.4 69.85-20.4ZM104.49-11.55L104.49-11.55Q104.49-7.85 103.09-5.1 101.69-2.35 99.14-0.85 96.59 0.65 93.14 0.65L93.14 0.65Q89.69 0.65 87.12-0.85 84.54-2.35 83.14-5.1 81.74-7.85 81.74-11.55L81.74-11.55Q81.74-15.3 83.17-18.03 84.59-20.75 87.17-22.25 89.74-23.75 93.14-23.75L93.14-23.75Q96.54-23.75 99.09-22.25 101.64-20.75 103.07-18.03 104.49-15.3 104.49-11.55ZM93.14-20.45L93.14-20.45Q89.79-20.45 87.82-18.07 85.84-15.7 85.84-11.55L85.84-11.55Q85.84-7.35 87.77-5 89.69-2.65 93.14-2.65L93.14-2.65Q96.54-2.65 98.47-5.03 100.39-7.4 100.39-11.55L100.39-11.55Q100.39-15.7 98.47-18.07 96.54-20.45 93.14-20.45ZM129.34-16L129.34-16 129.34-10.25 125.34-10.25 125.34-15.7Q125.34-18.15 123.92-19.3 122.49-20.45 120.14-20.45L120.14-20.45Q118.59-20.45 117.14-19.95 115.69-19.45 114.69-18.8L114.69-18.8 114.69-10.25 110.69-10.25 110.69-18.6Q110.69-19.6 111.12-20.3 111.54-21 112.59-21.65L112.59-21.65Q113.94-22.5 116.02-23.13 118.09-23.75 120.19-23.75L120.19-23.75Q122.74-23.75 124.69-22.98 126.64-22.2 127.59-20.85L127.59-20.85Q127.89-20.55 128.09-20.3 128.29-20.05 128.49-19.65L128.49-19.65Q128.84-19.05 129.09-18.1 129.34-17.15 129.34-16ZM143.99-15.9L143.99-15.9 143.99-10.25 139.99-10.25 139.99-15.7Q139.99-18.15 138.59-19.3 137.19-20.45 134.84-20.45L134.84-20.45Q133.09-20.45 131.47-19.73 129.84-19 128.54-17.65L128.54-17.65 126.94-20.55Q128.24-21.85 130.34-22.8 132.44-23.75 135.14-23.75L135.14-23.75Q137.84-23.75 139.82-22.9 141.79-22.05 142.89-20.3 143.99-18.55 143.99-15.9ZM110.69-1.55L110.69-12.9 114.69-12.9 114.69-0.1Q114.44 0 113.94 0.13 113.44 0.25 112.84 0.25L112.84 0.25Q111.79 0.25 111.24-0.18 110.69-0.6 110.69-1.55L110.69-1.55ZM125.34-1.55L125.34-12.9 129.34-12.9 129.34-0.1Q129.09 0 128.57 0.13 128.04 0.25 127.49 0.25L127.49 0.25Q126.39 0.25 125.87-0.18 125.34-0.6 125.34-1.55L125.34-1.55ZM139.99-1.55L139.99-12.9 143.99-12.9 143.99-0.1Q143.74 0 143.22 0.13 142.69 0.25 142.14 0.25L142.14 0.25Q141.04 0.25 140.52-0.18 139.99-0.6 139.99-1.55L139.99-1.55ZM170.14-16L170.14-16 170.14-10.25 166.14-10.25 166.14-15.7Q166.14-18.15 164.71-19.3 163.29-20.45 160.94-20.45L160.94-20.45Q159.39-20.45 157.94-19.95 156.49-19.45 155.49-18.8L155.49-18.8 155.49-10.25 151.49-10.25 151.49-18.6Q151.49-19.6 151.91-20.3 152.34-21 153.39-21.65L153.39-21.65Q154.74-22.5 156.81-23.13 158.89-23.75 160.99-23.75L160.99-23.75Q163.54-23.75 165.49-22.98 167.44-22.2 168.39-20.85L168.39-20.85Q168.69-20.55 168.89-20.3 169.09-20.05 169.29-19.65L169.29-19.65Q169.64-19.05 169.89-18.1 170.14-17.15 170.14-16ZM184.79-15.9L184.79-15.9 184.79-10.25 180.79-10.25 180.79-15.7Q180.79-18.15 179.39-19.3 177.99-20.45 175.64-20.45L175.64-20.45Q173.89-20.45 172.26-19.73 170.64-19 169.34-17.65L169.34-17.65 167.74-20.55Q169.04-21.85 171.14-22.8 173.24-23.75 175.94-23.75L175.94-23.75Q178.64-23.75 180.61-22.9 182.59-22.05 183.69-20.3 184.79-18.55 184.79-15.9ZM151.49-1.55L151.49-12.9 155.49-12.9 155.49-0.1Q155.24 0 154.74 0.13 154.24 0.25 153.64 0.25L153.64 0.25Q152.59 0.25 152.04-0.18 151.49-0.6 151.49-1.55L151.49-1.55ZM166.14-1.55L166.14-12.9 170.14-12.9 170.14-0.1Q169.89 0 169.36 0.13 168.84 0.25 168.29 0.25L168.29 0.25Q167.19 0.25 166.66-0.18 166.14-0.6 166.14-1.55L166.14-1.55ZM180.79-1.55L180.79-12.9 184.79-12.9 184.79-0.1Q184.54 0 184.01 0.13 183.49 0.25 182.94 0.25L182.94 0.25Q181.84 0.25 181.31-0.18 180.79-0.6 180.79-1.55L180.79-1.55ZM210.54-11.35L193.74-9 193.54-12.15 208.64-14.2Q208.44-16.95 206.74-18.73 205.04-20.5 202.04-20.5L202.04-20.5Q198.94-20.5 196.91-18.28 194.89-16.05 194.89-11.9L194.89-11.9 194.89-10.8Q195.24-6.8 197.51-4.73 199.79-2.65 203.74-2.65L203.74-2.65Q205.84-2.65 207.54-3.35 209.24-4.05 210.24-4.85L210.24-4.85Q210.79-4.5 211.11-4.03 211.44-3.55 211.44-2.95L211.44-2.95Q211.44-2 210.36-1.18 209.29-0.35 207.51 0.15 205.74 0.65 203.54 0.65L203.54 0.65Q199.69 0.65 196.86-0.75 194.04-2.15 192.51-4.93 190.99-7.7 190.99-11.7L190.99-11.7Q190.99-14.55 191.81-16.78 192.64-19 194.11-20.55 195.59-22.1 197.64-22.93 199.69-23.75 202.09-23.75L202.09-23.75Q205.14-23.75 207.46-22.45 209.79-21.15 211.11-18.82 212.44-16.5 212.44-13.5L212.44-13.5Q212.44-12.4 211.94-11.93 211.44-11.45 210.54-11.35L210.54-11.35ZM238.23-15.25L238.23-15.25 238.23-10.15 234.23-10.15 234.23-15.05Q234.23-17.85 232.66-19.15 231.08-20.45 228.43-20.45L228.43-20.45Q226.43-20.45 224.88-19.95 223.33-19.45 222.23-18.8L222.23-18.8 222.23-10.15 218.23-10.15 218.23-18.6Q218.23-19.65 218.66-20.33 219.08-21 220.13-21.65L220.13-21.65Q221.43-22.4 223.58-23.08 225.73-23.75 228.43-23.75L228.43-23.75Q232.98-23.75 235.61-21.68 238.23-19.6 238.23-15.25ZM218.23-1.55L218.23-12.9 222.23-12.9 222.23-0.1Q221.98 0 221.48 0.13 220.98 0.25 220.38 0.25L220.38 0.25Q219.33 0.25 218.78-0.18 218.23-0.6 218.23-1.55L218.23-1.55ZM234.23-1.55L234.23-12.9 238.23-12.9 238.23-0.1Q237.98 0 237.46 0.13 236.93 0.25 236.38 0.25L236.38 0.25Q235.28 0.25 234.76-0.18 234.23-0.6 234.23-1.55L234.23-1.55ZM261.48-3.95L261.48-3.95 261.48-20.75 265.48-20.8 265.48-3.8Q265.48-2.85 265.06-2.27 264.63-1.7 263.73-1.15L263.73-1.15Q262.73-0.5 260.88 0.08 259.03 0.65 256.63 0.65L256.63 0.65Q253.03 0.65 250.28-0.6 247.53-1.85 245.98-4.53 244.43-7.2 244.43-11.45L244.43-11.45Q244.43-15.8 245.96-18.5 247.48-21.2 250.08-22.48 252.68-23.75 255.78-23.75L255.78-23.75Q257.73-23.75 259.48-23.2 261.23-22.65 262.23-21.85L262.23-21.85 262.23-18.15Q261.28-19.1 259.76-19.78 258.23-20.45 256.18-20.45L256.18-20.45Q254.13-20.45 252.38-19.58 250.63-18.7 249.58-16.7 248.53-14.7 248.53-11.35L248.53-11.35Q248.53-6.8 250.73-4.73 252.93-2.65 256.58-2.65L256.58-2.65Q258.33-2.65 259.46-3.03 260.58-3.4 261.48-3.95ZM265.48-30.95L265.48-19.8 261.48-19.75 261.48-32.4Q261.73-32.5 262.26-32.63 262.78-32.75 263.33-32.75L263.33-32.75Q264.43-32.75 264.96-32.33 265.48-31.9 265.48-30.95L265.48-30.95ZM294.53-11.55L294.53-11.55Q294.53-7.85 293.13-5.1 291.73-2.35 289.18-0.85 286.63 0.65 283.18 0.65L283.18 0.65Q279.73 0.65 277.15-0.85 274.58-2.35 273.18-5.1 271.78-7.85 271.78-11.55L271.78-11.55Q271.78-15.3 273.2-18.03 274.63-20.75 277.2-22.25 279.78-23.75 283.18-23.75L283.18-23.75Q286.58-23.75 289.13-22.25 291.68-20.75 293.1-18.03 294.53-15.3 294.53-11.55ZM283.18-20.45L283.18-20.45Q279.83-20.45 277.85-18.07 275.88-15.7 275.88-11.55L275.88-11.55Q275.88-7.35 277.8-5 279.73-2.65 283.18-2.65L283.18-2.65Q286.58-2.65 288.5-5.03 290.43-7.4 290.43-11.55L290.43-11.55Q290.43-15.7 288.5-18.07 286.58-20.45 283.18-20.45Z" fill="#336a86" data-fill-palette-color="primary"></path></g></svg></g></svg></g><g transform="matrix(1,0,0,1,163.310208,56.287552002647345)"><svg viewBox="0 0 232.20979199999994 19.150404787111615" height="19.150404787111615" width="232.20979199999994"><g transform="matrix(1,0,0,1,0,0)"><svg width="232.20979199999994" viewBox="1.05 -32.9 521.34 43" height="19.150404787111615" data-palette-color="#8eaec4"><path d="M15.7-10.9L15.7-10.9 12.15-10.9Q10.75-13 9.22-15.33 7.7-17.65 6.23-20.05 4.75-22.45 3.43-24.78 2.1-27.1 1.05-29.1L1.05-29.1Q1.25-29.65 1.8-30.18 2.35-30.7 3.25-30.7L3.25-30.7Q4.2-30.7 4.73-30.2 5.25-29.7 5.8-28.7L5.8-28.7Q6.45-27.55 7.28-26.13 8.1-24.7 9-23.13 9.9-21.55 10.8-20 11.7-18.45 12.48-17.1 13.25-15.75 13.85-14.75L13.85-14.75 14.05-14.75Q15.8-17.65 17.25-20.25 18.7-22.85 20.05-25.35 21.4-27.85 22.7-30.35L22.7-30.35Q23-30.55 23.45-30.63 23.9-30.7 24.25-30.7L24.25-30.7Q25.2-30.7 25.68-30.25 26.15-29.8 26.15-29L26.15-29Q26.15-28.5 25.38-26.88 24.6-25.25 23.2-22.83 21.8-20.4 19.9-17.35 18-14.3 15.7-10.9ZM11.9-1.6L11.9-12.85 15.95-12.85 15.95-0.1Q15.7 0 15.18 0.13 14.65 0.25 14.1 0.25L14.1 0.25Q13 0.25 12.45-0.2 11.9-0.65 11.9-1.6L11.9-1.6ZM52.7-11.55L52.7-11.55 52.7-11.55Q52.7-7.85 51.3-5.1 49.9-2.35 47.35-0.85 44.8 0.65 41.35 0.65L41.35 0.65Q37.9 0.65 35.32-0.85 32.75-2.35 31.35-5.1 29.95-7.85 29.95-11.55L29.95-11.55Q29.95-15.3 31.37-18.03 32.8-20.75 35.37-22.25 37.95-23.75 41.35-23.75L41.35-23.75Q44.75-23.75 47.3-22.25 49.85-20.75 51.27-18.03 52.7-15.3 52.7-11.55ZM41.35-20.45L41.35-20.45 41.35-20.45Q38-20.45 36.02-18.07 34.05-15.7 34.05-11.55L34.05-11.55Q34.05-7.35 35.97-5 37.9-2.65 41.35-2.65L41.35-2.65Q44.75-2.65 46.67-5.03 48.6-7.4 48.6-11.55L48.6-11.55Q48.6-15.7 46.67-18.07 44.75-20.45 41.35-20.45ZM58.9-8.45L58.9-8.45 58.9-13 62.9-13 62.9-8.65Q62.9-5.45 64.59-4.05 66.3-2.65 69.3-2.65L69.3-2.65Q71.3-2.65 72.7-3.08 74.09-3.5 74.9-3.95L74.9-3.95 74.9-13 78.9-13 78.9-4.1Q78.9-3.05 78.62-2.43 78.34-1.8 77.3-1.2L77.3-1.2Q76.2-0.55 74.15 0.05 72.09 0.65 69.25 0.65L69.25 0.65Q65.95 0.65 63.62-0.33 61.3-1.3 60.1-3.33 58.9-5.35 58.9-8.45ZM78.9-21.5L78.9-10.4 74.9-10.4 74.9-23Q75.15-23.1 75.67-23.23 76.2-23.35 76.75-23.35L76.75-23.35Q77.84-23.35 78.37-22.93 78.9-22.5 78.9-21.5L78.9-21.5ZM62.9-21.5L62.9-10.4 58.9-10.4 58.9-23Q59.15-23.1 59.67-23.23 60.2-23.35 60.8-23.35L60.8-23.35Q61.85-23.35 62.37-22.93 62.9-22.5 62.9-21.5L62.9-21.5ZM90.39-18.8L90.39-18.8 90.39-10.9 86.39-10.9 86.39-18.5Q86.39-19.65 86.82-20.33 87.24-21 88.24-21.65L88.24-21.65Q89.54-22.5 91.79-23.13 94.04-23.75 96.79-23.75L96.79-23.75Q100.79-23.75 100.79-21.75L100.79-21.75Q100.79-21.25 100.64-20.83 100.49-20.4 100.24-20.1L100.24-20.1Q99.74-20.2 98.94-20.3 98.14-20.4 97.34-20.4L97.34-20.4Q95.04-20.4 93.29-19.93 91.54-19.45 90.39-18.8ZM86.39-1.55L86.39-13.2 90.39-12.6 90.39-0.1Q90.14 0 89.64 0.13 89.14 0.25 88.54 0.25L88.54 0.25Q87.49 0.25 86.94-0.18 86.39-0.6 86.39-1.55L86.39-1.55ZM125.09-0.7L125.09-0.7 125.09-0.7Q122.19-0.7 119.74-1.83 117.29-2.95 115.79-5.5 114.29-8.05 114.29-12.25L114.29-12.25Q114.29-16.05 115.76-18.6 117.24-21.15 119.84-22.45 122.44-23.75 125.79-23.75L125.79-23.75Q128.09-23.75 130.01-23.18 131.94-22.6 133.24-21.75L133.24-21.75Q133.99-21.25 134.46-20.63 134.94-20 134.94-19.1L134.94-19.1 134.94-3.65 130.94-3.65 130.94-19.05Q130.09-19.6 128.81-20.03 127.54-20.45 125.79-20.45L125.79-20.45Q122.44-20.45 120.39-18.4 118.34-16.35 118.34-12.3L118.34-12.3Q118.34-7.8 120.41-5.9 122.49-4 125.54-4L125.54-4Q127.74-4 129.09-4.75 130.44-5.5 131.24-6.4L131.24-6.4 131.44-2.85Q130.69-2.05 129.06-1.38 127.44-0.7 125.09-0.7ZM130.94 0.75L130.94 0.75 130.94-4.5 134.94-4.5 134.94 1Q134.94 4.3 133.51 6.3 132.09 8.3 129.61 9.2 127.14 10.1 124.04 10.1L124.04 10.1Q121.54 10.1 119.74 9.55 117.94 9 117.29 8.65L117.29 8.65Q115.79 7.8 115.79 6.5L115.79 6.5Q115.79 5.8 116.11 5.33 116.44 4.85 116.94 4.6L116.94 4.6Q117.99 5.4 119.91 6.08 121.84 6.75 124.04 6.75L124.04 6.75Q127.39 6.75 129.16 5.3 130.94 3.85 130.94 0.75ZM142.34-8.45L142.34-8.45 142.34-13 146.34-13 146.34-8.65Q146.34-5.45 148.03-4.05 149.74-2.65 152.74-2.65L152.74-2.65Q154.74-2.65 156.14-3.08 157.53-3.5 158.34-3.95L158.34-3.95 158.34-13 162.34-13 162.34-4.1Q162.34-3.05 162.06-2.43 161.79-1.8 160.74-1.2L160.74-1.2Q159.64-0.55 157.59 0.05 155.53 0.65 152.69 0.65L152.69 0.65Q149.39 0.65 147.06-0.33 144.74-1.3 143.53-3.33 142.34-5.35 142.34-8.45ZM162.34-21.5L162.34-10.4 158.34-10.4 158.34-23Q158.59-23.1 159.11-23.23 159.64-23.35 160.19-23.35L160.19-23.35Q161.29-23.35 161.81-22.93 162.34-22.5 162.34-21.5L162.34-21.5ZM146.34-21.5L146.34-10.4 142.34-10.4 142.34-23Q142.59-23.1 143.11-23.23 143.64-23.35 144.24-23.35L144.24-23.35Q145.28-23.35 145.81-22.93 146.34-22.5 146.34-21.5L146.34-21.5ZM169.48-30.4L169.48-30.4 169.48-30.4Q169.48-31.45 170.23-32.18 170.98-32.9 172.08-32.9L172.08-32.9Q173.23-32.9 173.93-32.18 174.63-31.45 174.63-30.4L174.63-30.4Q174.63-29.35 173.93-28.63 173.23-27.9 172.08-27.9L172.08-27.9Q170.98-27.9 170.23-28.63 169.48-29.35 169.48-30.4ZM170.08-1.55L170.08-13.2 174.08-13.2 174.08-0.1Q173.83 0 173.33 0.13 172.83 0.25 172.23 0.25L172.23 0.25Q171.18 0.25 170.63-0.18 170.08-0.6 170.08-1.55L170.08-1.55ZM174.08-21.5L174.08-11.25 170.08-11.25 170.08-23Q170.33-23.1 170.86-23.23 171.38-23.35 171.98-23.35L171.98-23.35Q173.03-23.35 173.56-22.93 174.08-22.5 174.08-21.5L174.08-21.5ZM197.63-3.95L197.63-3.95 197.63-20.75 201.63-20.8 201.63-3.8Q201.63-2.85 201.21-2.27 200.78-1.7 199.88-1.15L199.88-1.15Q198.88-0.5 197.18 0.08 195.48 0.65 193.08 0.65L193.08 0.65Q189.48 0.65 186.66-0.6 183.83-1.85 182.21-4.53 180.58-7.2 180.58-11.45L180.58-11.45Q180.58-15.8 182.11-18.5 183.63-21.2 186.23-22.48 188.83-23.75 191.93-23.75L191.93-23.75Q193.88-23.75 195.63-23.2 197.38-22.65 198.38-21.85L198.38-21.85 198.38-18.15Q197.43-19.1 195.91-19.78 194.38-20.45 192.33-20.45L192.33-20.45Q190.28-20.45 188.53-19.58 186.78-18.7 185.73-16.7 184.68-14.7 184.68-11.35L184.68-11.35Q184.68-6.8 186.88-4.73 189.08-2.65 192.73-2.65L192.73-2.65Q194.48-2.65 195.61-3.03 196.73-3.4 197.63-3.95ZM201.63-30.95L201.63-19.8 197.63-19.75 197.63-32.4Q197.88-32.5 198.41-32.63 198.93-32.75 199.48-32.75L199.48-32.75Q200.58-32.75 201.11-32.33 201.63-31.9 201.63-30.95L201.63-30.95ZM227.48-11.35L210.68-9 210.48-12.15 225.58-14.2Q225.38-16.95 223.68-18.73 221.98-20.5 218.98-20.5L218.98-20.5Q215.88-20.5 213.85-18.28 211.83-16.05 211.83-11.9L211.83-11.9 211.83-10.8Q212.18-6.8 214.45-4.73 216.73-2.65 220.68-2.65L220.68-2.65Q222.78-2.65 224.48-3.35 226.18-4.05 227.18-4.85L227.18-4.85Q227.73-4.5 228.05-4.03 228.38-3.55 228.38-2.95L228.38-2.95Q228.38-2 227.3-1.18 226.23-0.35 224.45 0.15 222.68 0.65 220.48 0.65L220.48 0.65Q216.63 0.65 213.8-0.75 210.98-2.15 209.45-4.93 207.93-7.7 207.93-11.7L207.93-11.7Q207.93-14.55 208.75-16.78 209.58-19 211.05-20.55 212.53-22.1 214.58-22.93 216.63-23.75 219.03-23.75L219.03-23.75Q222.08-23.75 224.4-22.45 226.73-21.15 228.05-18.82 229.38-16.5 229.38-13.5L229.38-13.5Q229.38-12.4 228.88-11.93 228.38-11.45 227.48-11.35L227.48-11.35ZM245.22-6.05L245.22-13.2 249.22-13.2 249.22-6.3Q249.22-4.3 250.37-3.48 251.52-2.65 253.52-2.65L253.52-2.65Q254.37-2.65 255.42-2.95 256.47-3.25 257.17-3.65L257.17-3.65Q257.47-3.35 257.72-2.9 257.97-2.45 257.97-1.85L257.97-1.85Q257.97-0.75 256.67-0.05 255.37 0.65 253.07 0.65L253.07 0.65Q249.57 0.65 247.4-0.9 245.22-2.45 245.22-6.05L245.22-6.05ZM256.37-19.3L247.27-19.3 247.27-22.6 257.42-22.6Q257.57-22.4 257.72-21.95 257.87-21.5 257.87-21L257.87-21Q257.87-20.2 257.47-19.75 257.07-19.3 256.37-19.3L256.37-19.3ZM249.22-28.35L249.22-11.7 245.22-11.7 245.22-29.8Q245.47-29.9 246-30.03 246.52-30.15 247.12-30.15L247.12-30.15Q248.17-30.15 248.7-29.73 249.22-29.3 249.22-28.35L249.22-28.35ZM285.22-11.55L285.22-11.55 285.22-11.55Q285.22-7.85 283.82-5.1 282.42-2.35 279.87-0.85 277.32 0.65 273.87 0.65L273.87 0.65Q270.42 0.65 267.85-0.85 265.27-2.35 263.87-5.1 262.47-7.85 262.47-11.55L262.47-11.55Q262.47-15.3 263.9-18.03 265.32-20.75 267.9-22.25 270.47-23.75 273.87-23.75L273.87-23.75Q277.27-23.75 279.82-22.25 282.37-20.75 283.8-18.03 285.22-15.3 285.22-11.55ZM273.87-20.45L273.87-20.45 273.87-20.45Q270.52-20.45 268.55-18.07 266.57-15.7 266.57-11.55L266.57-11.55Q266.57-7.35 268.5-5 270.42-2.65 273.87-2.65L273.87-2.65Q277.27-2.65 279.2-5.03 281.12-7.4 281.12-11.55L281.12-11.55Q281.12-15.7 279.2-18.07 277.27-20.45 273.87-20.45ZM301.81-1.55L301.81-13.2 305.81-12.6 305.81-0.1Q305.56 0 305.06 0.13 304.56 0.25 303.97 0.25L303.97 0.25Q302.92 0.25 302.37-0.18 301.81-0.6 301.81-1.55L301.81-1.55ZM305.81-30.95L305.81-10.7 301.81-11.25 301.81-32.4Q302.06-32.5 302.59-32.63 303.12-32.75 303.67-32.75L303.67-32.75Q304.77-32.75 305.29-32.33 305.81-31.9 305.81-30.95L305.81-30.95ZM335.16-11.55L335.16-11.55 335.16-11.55Q335.16-7.85 333.76-5.1 332.36-2.35 329.81-0.85 327.26 0.65 323.81 0.65L323.81 0.65Q320.36 0.65 317.79-0.85 315.21-2.35 313.81-5.1 312.41-7.85 312.41-11.55L312.41-11.55Q312.41-15.3 313.84-18.03 315.26-20.75 317.84-22.25 320.41-23.75 323.81-23.75L323.81-23.75Q327.21-23.75 329.76-22.25 332.31-20.75 333.74-18.03 335.16-15.3 335.16-11.55ZM323.81-20.45L323.81-20.45 323.81-20.45Q320.46-20.45 318.49-18.07 316.51-15.7 316.51-11.55L316.51-11.55Q316.51-7.35 318.44-5 320.36-2.65 323.81-2.65L323.81-2.65Q327.21-2.65 329.14-5.03 331.06-7.4 331.06-11.55L331.06-11.55Q331.06-15.7 329.14-18.07 327.21-20.45 323.81-20.45ZM352.06-20.4L352.06-20.4 352.06-20.4Q348.66-20.4 346.41-18.1 344.16-15.8 344.16-11.5L344.16-11.5Q344.16-7.25 346.34-4.95 348.51-2.65 352.06-2.65L352.06-2.65Q354.16-2.65 355.56-3.23 356.96-3.8 358.06-4.55L358.06-4.55Q358.61-4.25 358.96-3.8 359.31-3.35 359.31-2.7L359.31-2.7Q359.31-1.3 357.24-0.33 355.16 0.65 352.06 0.65L352.06 0.65Q348.61 0.65 345.88-0.68 343.16-2 341.61-4.7 340.06-7.4 340.06-11.5L340.06-11.5Q340.06-15.55 341.66-18.28 343.26-21 345.99-22.38 348.71-23.75 351.96-23.75L351.96-23.75Q355.06-23.75 357.09-22.7 359.11-21.65 359.11-20.3L359.11-20.3Q359.11-19.7 358.76-19.25 358.41-18.8 357.86-18.55L357.86-18.55Q356.76-19.3 355.44-19.85 354.11-20.4 352.06-20.4ZM373.51-2.6L373.51-2.6 373.51-2.6Q375.61-2.6 376.98-3.03 378.36-3.45 378.96-3.85L378.96-3.85 378.96-11.1 372.76-10.45Q370.16-10.25 368.91-9.3 367.66-8.35 367.66-6.55L367.66-6.55Q367.66-4.7 369.13-3.65 370.61-2.6 373.51-2.6ZM373.46-23.75L373.46-23.75 373.46-23.75Q377.81-23.75 380.36-21.8 382.91-19.85 382.91-15.65L382.91-15.65 382.91-3.8Q382.91-2.7 382.48-2.13 382.06-1.55 381.21-1.05L381.21-1.05Q380.01-0.4 378.01 0.15 376.01 0.7 373.51 0.7L373.51 0.7Q368.81 0.7 366.23-1.15 363.66-3 363.66-6.5L363.66-6.5Q363.66-9.75 365.83-11.48 368.01-13.2 371.86-13.55L371.86-13.55 378.96-14.25 378.96-15.65Q378.96-18.15 377.46-19.3 375.96-20.45 373.41-20.45L373.41-20.45Q371.36-20.45 369.48-19.85 367.61-19.25 366.16-18.5L366.16-18.5Q365.76-18.85 365.43-19.33 365.11-19.8 365.11-20.3L365.11-20.3Q365.11-21.6 366.56-22.3L366.56-22.3Q367.91-23 369.68-23.38 371.46-23.75 373.46-23.75ZM390.6-1.55L390.6-13.2 394.6-12.6 394.6-0.1Q394.35 0 393.85 0.13 393.35 0.25 392.75 0.25L392.75 0.25Q391.7 0.25 391.15-0.18 390.6-0.6 390.6-1.55L390.6-1.55ZM394.6-30.95L394.6-10.7 390.6-11.25 390.6-32.4Q390.85-32.5 391.38-32.63 391.9-32.75 392.45-32.75L392.45-32.75Q393.56-32.75 394.08-32.33 394.6-31.9 394.6-30.95L394.6-30.95ZM422.1-0.7L422.1-0.7 422.1-0.7Q419.2-0.7 416.75-1.83 414.3-2.95 412.8-5.5 411.3-8.05 411.3-12.25L411.3-12.25Q411.3-16.05 412.77-18.6 414.25-21.15 416.85-22.45 419.45-23.75 422.8-23.75L422.8-23.75Q425.1-23.75 427.02-23.18 428.95-22.6 430.25-21.75L430.25-21.75Q431-21.25 431.48-20.63 431.95-20 431.95-19.1L431.95-19.1 431.95-3.65 427.95-3.65 427.95-19.05Q427.1-19.6 425.82-20.03 424.55-20.45 422.8-20.45L422.8-20.45Q419.45-20.45 417.4-18.4 415.35-16.35 415.35-12.3L415.35-12.3Q415.35-7.8 417.43-5.9 419.5-4 422.55-4L422.55-4Q424.75-4 426.1-4.75 427.45-5.5 428.25-6.4L428.25-6.4 428.45-2.85Q427.7-2.05 426.07-1.38 424.45-0.7 422.1-0.7ZM427.95 0.75L427.95 0.75 427.95-4.5 431.95-4.5 431.95 1Q431.95 4.3 430.52 6.3 429.1 8.3 426.63 9.2 424.15 10.1 421.05 10.1L421.05 10.1Q418.55 10.1 416.75 9.55 414.95 9 414.3 8.65L414.3 8.65Q412.8 7.8 412.8 6.5L412.8 6.5Q412.8 5.8 413.13 5.33 413.45 4.85 413.95 4.6L413.95 4.6Q415 5.4 416.93 6.08 418.85 6.75 421.05 6.75L421.05 6.75Q424.4 6.75 426.18 5.3 427.95 3.85 427.95 0.75ZM457.6-11.35L440.8-9 440.6-12.15 455.7-14.2Q455.5-16.95 453.8-18.73 452.1-20.5 449.1-20.5L449.1-20.5Q446-20.5 443.97-18.28 441.95-16.05 441.95-11.9L441.95-11.9 441.95-10.8Q442.3-6.8 444.57-4.73 446.85-2.65 450.8-2.65L450.8-2.65Q452.9-2.65 454.6-3.35 456.3-4.05 457.3-4.85L457.3-4.85Q457.85-4.5 458.17-4.03 458.5-3.55 458.5-2.95L458.5-2.95Q458.5-2 457.42-1.18 456.35-0.35 454.57 0.15 452.8 0.65 450.6 0.65L450.6 0.65Q446.75 0.65 443.92-0.75 441.1-2.15 439.57-4.93 438.05-7.7 438.05-11.7L438.05-11.7Q438.05-14.55 438.87-16.78 439.7-19 441.17-20.55 442.65-22.1 444.7-22.93 446.75-23.75 449.15-23.75L449.15-23.75Q452.2-23.75 454.52-22.45 456.85-21.15 458.17-18.82 459.5-16.5 459.5-13.5L459.5-13.5Q459.5-12.4 459-11.93 458.5-11.45 457.6-11.35L457.6-11.35ZM483.94-16L483.94-16 483.94-10.25 479.94-10.25 479.94-15.7Q479.94-18.15 478.52-19.3 477.1-20.45 474.75-20.45L474.75-20.45Q473.19-20.45 471.75-19.95 470.3-19.45 469.3-18.8L469.3-18.8 469.3-10.25 465.3-10.25 465.3-18.6Q465.3-19.6 465.72-20.3 466.15-21 467.19-21.65L467.19-21.65Q468.55-22.5 470.62-23.13 472.69-23.75 474.8-23.75L474.8-23.75Q477.35-23.75 479.3-22.98 481.25-22.2 482.19-20.85L482.19-20.85Q482.5-20.55 482.69-20.3 482.9-20.05 483.1-19.65L483.1-19.65Q483.44-19.05 483.69-18.1 483.94-17.15 483.94-16ZM498.6-15.9L498.6-15.9 498.6-10.25 494.6-10.25 494.6-15.7Q494.6-18.15 493.19-19.3 491.8-20.45 489.44-20.45L489.44-20.45Q487.69-20.45 486.07-19.73 484.44-19 483.15-17.65L483.15-17.65 481.55-20.55Q482.85-21.85 484.94-22.8 487.05-23.75 489.75-23.75L489.75-23.75Q492.44-23.75 494.42-22.9 496.4-22.05 497.5-20.3 498.6-18.55 498.6-15.9ZM465.3-1.55L465.3-12.9 469.3-12.9 469.3-0.1Q469.05 0 468.55 0.13 468.05 0.25 467.44 0.25L467.44 0.25Q466.4 0.25 465.85-0.18 465.3-0.6 465.3-1.55L465.3-1.55ZM479.94-1.55L479.94-12.9 483.94-12.9 483.94-0.1Q483.69 0 483.17 0.13 482.65 0.25 482.1 0.25L482.1 0.25Q481 0.25 480.47-0.18 479.94-0.6 479.94-1.55L479.94-1.55ZM494.6-1.55L494.6-12.9 498.6-12.9 498.6-0.1Q498.35 0 497.82 0.13 497.3 0.25 496.75 0.25L496.75 0.25Q495.65 0.25 495.12-0.18 494.6-0.6 494.6-1.55L494.6-1.55ZM522.39-6.15L522.39-6.15 522.39-6.15Q522.39-2.95 520.04-1.15 517.69 0.65 513.24 0.65L513.24 0.65Q509.44 0.65 507.04-0.53 504.64-1.7 504.64-3.1L504.64-3.1Q504.64-3.7 504.97-4.28 505.29-4.85 505.94-5.2L505.94-5.2Q507.29-4.25 509.09-3.45 510.89-2.65 513.19-2.65L513.19-2.65Q518.39-2.65 518.39-6.15L518.39-6.15Q518.39-7.6 517.52-8.53 516.64-9.45 514.94-9.85L514.94-9.85 510.79-10.95Q507.74-11.7 506.34-13.28 504.94-14.85 504.94-17.2L504.94-17.2Q504.94-19.85 507.09-21.8 509.24-23.75 513.64-23.75L513.64-23.75Q515.99-23.75 517.74-23.28 519.49-22.8 520.47-22.03 521.44-21.25 521.44-20.35L521.44-20.35Q521.44-19.7 521.12-19.2 520.79-18.7 520.24-18.45L520.24-18.45Q519.64-18.85 518.72-19.33 517.79-19.8 516.54-20.13 515.29-20.45 513.79-20.45L513.79-20.45Q511.59-20.45 510.24-19.6 508.89-18.75 508.89-17.2L508.89-17.2Q508.89-16.1 509.67-15.28 510.44-14.45 512.14-14.05L512.14-14.05 515.59-13.2Q518.99-12.4 520.69-10.68 522.39-8.95 522.39-6.15Z" opacity="1" transform="matrix(1,0,0,1,0,0)" fill="#8eaec4" class="slogan-text-1" data-fill-palette-color="secondary" id="text-1"></path></svg></g></svg></g></svg></g></svg></g><g transform="matrix(1,0,0,1,105.77506313845592,0)"><svg viewBox="0 0 183.96987372308809 183.96987372308809" height="183.96987372308809" width="183.96987372308809"><g><svg></svg></g><g id="icon-0"><svg viewBox="0 0 183.96987372308809 183.96987372308809" height="183.96987372308809" width="183.96987372308809"><g><path d="M0 91.985c0-50.802 41.183-91.985 91.985-91.985 50.802 0 91.985 41.183 91.985 91.985 0 50.802-41.183 91.985-91.985 91.985-50.802 0-91.985-41.183-91.985-91.985zM91.985 179.863c48.534 0 87.878-39.344 87.878-87.878 0-48.534-39.344-87.878-87.878-87.878-48.534 0-87.878 39.344-87.878 87.878 0 48.534 39.344 87.878 87.878 87.878z" data-fill-palette-color="accent" fill="#283132" stroke="transparent"></path></g><g transform="matrix(1,0,0,1,41.39115785814266,38.487522457775405)"><svg viewBox="0 0 101.18755800680276 106.99482880753727" height="106.99482880753727" width="101.18755800680276"><g><svg xmlns:x="http://ns.adobe.com/Extensibility/1.0/" xmlns:i="http://ns.adobe.com/AdobeIllustrator/10.0/" xmlns:graph="http://ns.adobe.com/Graphs/1.0/" xmlns="http://www.w3.org/2000/svg" xmlns:xlink="http://www.w3.org/1999/xlink" version="1.1" x="0" y="0" viewBox="0 0 92.22500000000002 97.51789924717559" style="enable-background:new 0 0 100 100;" xml:space="preserve" height="106.99482880753727" width="101.18755800680276" class="icon-cg-0" data-fill-palette-color="accent" id="cg-0"><g i:extraneous="self" transform="matrix(1,0,0,1,0,0)" fill="#283132" data-fill-palette-color="accent"><g fill="#283132" data-fill-palette-color="accent"><circle cx="26.7" cy="38" r="7.1" fill="#283132" data-fill-palette-color="accent"></circle><path d="M46.2 40.2c-1.8-0.1-3.3 1.3-3.4 3.1-0.1 1.6-0.7 4.3-1.7 5.2-0.2 0.1-0.3 0.2-0.7 0.2-2.2-0.2-3.8-0.5-5.4-0.8C32.3 47.4 30 47 26.7 47c-12.4 0-18.1 8.3-18.4 8.6-0.7 1.1-0.7 2.6 0.1 3.7l5.6 7.9c0.6 0.9 1.6 1.3 2.6 1.3 0.6 0 1.3-0.2 1.9-0.6 0.2-0.1 0.3-0.3 0.5-0.4l0 2-5.5 23.6C13 95 14.2 97 16.1 97.4c0.3 0.1 0.5 0.1 0.8 0.1 1.6 0 3.1-1.1 3.5-2.8l5.4-23.4h1.4L27.5 94c0 2 1.6 3.5 3.6 3.5 0 0 0 0 0 0 2 0 3.6-1.6 3.5-3.6l-0.3-39.6c1.5 0.3 3.2 0.5 5.3 0.8 2.1 0.2 4.1-0.4 5.6-1.7 3.5-3 3.9-8.7 4-9.8C49.3 41.8 47.9 40.3 46.2 40.2zM15.1 57.7c0.9-0.8 2.2-1.8 3.9-2.6L19 63.1 15.1 57.7z" fill="#283132" data-fill-palette-color="accent"></path><circle cx="73.3" cy="38" r="7.1" fill="#283132" data-fill-palette-color="accent"></circle><path d="M91.7 55.7c-0.2-0.4-5.9-8.6-18.4-8.6S55.2 55.3 55 55.7c-0.7 1.1-0.7 2.6 0.1 3.7l5.6 7.9c0.6 0.9 1.6 1.3 2.6 1.3 0.6 0 1.3-0.2 1.9-0.6 0.2-0.1 0.3-0.3 0.5-0.4l0 2.2-2 23.8c-0.2 2 1.3 3.7 3.3 3.9 2 0.2 3.7-1.3 3.9-3.3l1.9-22.9H74l1.9 22.9c0.2 1.9 1.7 3.3 3.6 3.3 0.1 0 0.2 0 0.3 0 2-0.2 3.4-1.9 3.3-3.9l-2-23.8 0-2.2c0.1 0.1 0.3 0.3 0.5 0.4 0.6 0.4 1.2 0.6 1.9 0.6 1 0 2-0.5 2.6-1.3l5.6-7.9C92.4 58.2 92.4 56.8 91.7 55.7zM61.8 57.7c0.9-0.8 2.2-1.8 4-2.6l-0.1 8.1L61.8 57.7zM81 63.1L81 55.1c1.8 0.8 3.1 1.8 3.9 2.6L81 63.1z" fill="#283132" data-fill-palette-color="accent"></path><path d="M71.5 17.1c0-8.1-7.8-14.6-17.4-14.6-9.6 0-17.4 6.5-17.4 14.6 0 4.1 2.1 7.9 5.4 10.5-0.7 1.9-2 4.7-3.7 6.5-0.6 0.7-0.1 1.8 0.8 1.7 5.4-0.3 8.9-2.8 10.8-4.6 1.3 0.3 2.7 0.4 4.1 0.4C63.7 31.8 71.5 25.2 71.5 17.1zM61.1 18.5l-6.4 6.4c-0.4 0.4-0.9 0.4-1.3 0l-6.4-6.4c-1.4-1.4-1.8-3.6-0.8-5.2 1.5-2.6 4.9-2.9 6.8-0.9l1 1 0.9-0.9c1.4-1.4 3.6-1.8 5.2-0.8C62.8 13.2 63.1 16.6 61.1 18.5z" fill="#283132" data-fill-palette-color="accent"></path></g></g></svg></g></svg></g></svg></g></svg></g><g></g></svg></g><defs></defs></svg><rect width="348.0585138809501" height="247.2" fill="none" stroke="none" visibility="hidden"></rect></g></svg></g></svg>